<?xml version="1.0" standalone="no"?>
<!DOCTYPE svg PUBLIC "-//W3C//DTD SVG 20010904//EN"
 "http://www.w3.org/TR/2001/REC-SVG-20010904/DTD/svg10.dtd">
<svg version="1.0" xmlns="http://www.w3.org/2000/svg"
 width="1024.000000pt" height="1024.000000pt" viewBox="0 0 1024.000000 1024.000000"
 preserveAspectRatio="xMidYMid meet">

<g transform="translate(0.000000,1024.000000) scale(0.100000,-0.100000)"
fill="#000000" stroke="none">
<path d="M3017 7619 c-168 -22 -314 -143 -379 -315 l-23 -59 0 -2120 0 -2120
24 -65 c57 -156 157 -254 311 -306 53 -18 133 -19 2175 -19 l2120 0 59 23
c173 65 292 212 317 389 6 42 8 874 7 2143 l-3 2075 -23 60 c-66 176 -211 292
-393 315 -103 12 -4091 12 -4192 -1z m4197 -49 c180 -29 327 -174 355 -350 14
-86 15 -4110 1 -4194 -29 -181 -173 -328 -350 -356 -90 -14 -4110 -14 -4200 0
-177 28 -321 175 -350 356 -14 84 -13 4108 1 4194 27 172 175 321 346 350 70
11 4125 12 4197 0z"/>
<path d="M6655 7058 c-48 -17 -121 -70 -154 -112 -43 -54 -65 -133 -59 -215 9
-115 78 -215 183 -263 74 -34 190 -32 266 3 110 52 171 145 177 269 9 191
-126 331 -316 329 -37 0 -80 -5 -97 -11z m201 -53 c105 -44 164 -134 164 -249
0 -84 -20 -134 -75 -188 -51 -50 -98 -71 -173 -76 -201 -14 -344 195 -257 373
13 28 30 57 37 65 23 28 86 71 115 80 46 14 151 11 189 -5z"/>
<path d="M4865 6735 c-200 -32 -426 -114 -590 -215 -417 -256 -691 -665 -771
-1150 -18 -109 -18 -378 0 -495 73 -478 356 -902 764 -1149 272 -164 530 -236
852 -236 322 0 579 71 852 236 220 132 419 333 551 556 77 130 148 301 183
438 59 237 59 568 -1 800 -108 419 -364 765 -740 1000 -164 102 -390 184 -600
216 -111 17 -391 16 -500 -1z m575 -64 c626 -134 1102 -608 1230 -1224 60
-286 37 -603 -60 -868 -204 -553 -681 -940 -1267 -1028 -93 -14 -353 -14 -446
0 -664 100 -1193 594 -1326 1238 -140 673 157 1348 744 1696 182 108 334 159
615 209 14 2 111 3 215 2 152 -2 211 -7 295 -25z"/>
</g>
</svg>
